massMuscle_states
version=1
nRows=43
nColumns=15
inDegrees=yes

# SIMM Motion File Header:
name massMuscle_states
datacolumns 15
datarows 43
otherdata 1
range 2.63333333 2.66094705
endheader
time	massToGround_xRotation	massToGround_yRotation	massToGround_zRotation	massToGround_xTranslation	massToGround_yTranslation	massToGround_zTranslation	massToGround_xRotation_u	massToGround_yRotation_u	massToGround_zRotation_u	massToGround_xTranslation_u	massToGround_yTranslation_u	massToGround_zTranslation_u	muscle.activation	muscle.fiber_length
      2.63333333	      0.00000000	      0.00000000	      0.00000000	      0.00000000	      0.20766917	      0.00000000	      0.00000000	      0.00000000	      0.00000000	      0.00000000	     -0.29888053	      0.00000000	      0.14451321	      0.19037608
      2.63380666	      0.00000000	      0.00000000	      0.00000000	      0.00000000	      0.20752758	      0.00000000	      0.00000000	      0.00000000	      0.00000000	      0.00000000	     -0.29936911	      0.00000000	      0.14436197	      0.19052289
      2.63445335	      0.00000000	      0.00000000	      0.00000000	      0.00000000	      0.20733375	      0.00000000	      0.00000000	      0.00000000	      0.00000000	      0.00000000	     -0.30007554	      0.00000000	      0.14415533	      0.19070683
      2.63510004	      0.00000000	      0.00000000	      0.00000000	      0.00000000	      0.20713948	      0.00000000	      0.00000000	      0.00000000	      0.00000000	      0.00000000	     -0.30074086	      0.00000000	      0.14394871	      0.19091124
      2.63574673	      0.00000000	      0.00000000	      0.00000000	      0.00000000	      0.20694477	      0.00000000	      0.00000000	      0.00000000	      0.00000000	      0.00000000	     -0.30145045	      0.00000000	      0.14374209	      0.19109676
      2.63639341	      0.00000000	      0.00000000	      0.00000000	      0.00000000	      0.20674960	      0.00000000	      0.00000000	      0.00000000	      0.00000000	      0.00000000	     -0.30212194	      0.00000000	      0.14353547	      0.19130139
      2.63717141	      0.00000000	      0.00000000	      0.00000000	      0.00000000	      0.20651423	      0.00000000	      0.00000000	      0.00000000	      0.00000000	      0.00000000	     -0.30299537	      0.00000000	      0.14328692	      0.19151964
      2.63774148	      0.00000000	      0.00000000	      0.00000000	      0.00000000	      0.20634133	      0.00000000	      0.00000000	      0.00000000	      0.00000000	      0.00000000	     -0.30356912	      0.00000000	      0.14310480	      0.19171132
      2.63831155	      0.00000000	      0.00000000	      0.00000000	      0.00000000	      0.20616810	      0.00000000	      0.00000000	      0.00000000	      0.00000000	      0.00000000	     -0.30420172	      0.00000000	      0.14292268	      0.19187705
      2.63908264	      0.00000000	      0.00000000	      0.00000000	      0.00000000	      0.20593321	      0.00000000	      0.00000000	      0.00000000	      0.00000000	      0.00000000	     -0.30501879	      0.00000000	      0.14267635	      0.19212097
      2.63977381	      0.00000000	      0.00000000	      0.00000000	      0.00000000	      0.20572213	      0.00000000	      0.00000000	      0.00000000	      0.00000000	      0.00000000	     -0.30580445	      0.00000000	      0.14245557	      0.19231689
      2.64046498	      0.00000000	      0.00000000	      0.00000000	      0.00000000	      0.20551051	      0.00000000	      0.00000000	      0.00000000	      0.00000000	      0.00000000	     -0.30650968	      0.00000000	      0.14223479	      0.19255175
      2.64105386	      0.00000000	      0.00000000	      0.00000000	      0.00000000	      0.20532981	      0.00000000	      0.00000000	      0.00000000	      0.00000000	      0.00000000	     -0.30719949	      0.00000000	      0.14204669	      0.19271219
      2.64164274	      0.00000000	      0.00000000	      0.00000000	      0.00000000	      0.20514872	      0.00000000	      0.00000000	      0.00000000	      0.00000000	      0.00000000	     -0.30782471	      0.00000000	      0.14185859	      0.19290379
      2.64236919	      0.00000000	      0.00000000	      0.00000000	      0.00000000	      0.20492481	      0.00000000	      0.00000000	      0.00000000	      0.00000000	      0.00000000	     -0.30864838	      0.00000000	      0.14162657	      0.19311776
      2.64309564	      0.00000000	      0.00000000	      0.00000000	      0.00000000	      0.20470031	      0.00000000	      0.00000000	      0.00000000	      0.00000000	      0.00000000	     -0.30940801	      0.00000000	      0.14139455	      0.19336334
      2.64367743	      0.00000000	      0.00000000	      0.00000000	      0.00000000	      0.20452010	      0.00000000	      0.00000000	      0.00000000	      0.00000000	      0.00000000	     -0.31009802	      0.00000000	      0.14120874	      0.19352376
      2.64425923	      0.00000000	      0.00000000	      0.00000000	      0.00000000	      0.20433950	      0.00000000	      0.00000000	      0.00000000	      0.00000000	      0.00000000	     -0.31072686	      0.00000000	      0.14102293	      0.19371376
      2.64500450	      0.00000000	      0.00000000	      0.00000000	      0.00000000	      0.20410761	      0.00000000	      0.00000000	      0.00000000	      0.00000000	      0.00000000	     -0.31158128	      0.00000000	      0.14078493	      0.19393645
      2.64574976	      0.00000000	      0.00000000	      0.00000000	      0.00000000	      0.20387509	      0.00000000	      0.00000000	      0.00000000	      0.00000000	      0.00000000	     -0.31236973	      0.00000000	      0.14054693	      0.19419183
      2.64631108	      0.00000000	      0.00000000	      0.00000000	      0.00000000	      0.20369956	      0.00000000	      0.00000000	      0.00000000	      0.00000000	      0.00000000	     -0.31304819	      0.00000000	      0.14036768	      0.19434647
      2.64687240	      0.00000000	      0.00000000	      0.00000000	      0.00000000	      0.20352367	      0.00000000	      0.00000000	      0.00000000	      0.00000000	      0.00000000	     -0.31366703	      0.00000000	      0.14018844	      0.19452993
      2.64765331	      0.00000000	      0.00000000	      0.00000000	      0.00000000	      0.20327838	      0.00000000	      0.00000000	      0.00000000	      0.00000000	      0.00000000	     -0.31456978	      0.00000000	      0.13993908	      0.19476788
      2.64843422	      0.00000000	      0.00000000	      0.00000000	      0.00000000	      0.20303238	      0.00000000	      0.00000000	      0.00000000	      0.00000000	      0.00000000	     -0.31540740	      0.00000000	      0.13968974	      0.19503841
      2.64897141	      0.00000000	      0.00000000	      0.00000000	      0.00000000	      0.20286277	      0.00000000	      0.00000000	      0.00000000	      0.00000000	      0.00000000	     -0.31607048	      0.00000000	      0.13951822	      0.19518569
      2.64950861	      0.00000000	      0.00000000	      0.00000000	      0.00000000	      0.20269282	      0.00000000	      0.00000000	      0.00000000	      0.00000000	      0.00000000	     -0.31667489	      0.00000000	      0.13934670	      0.19536131
      2.65034395	      0.00000000	      0.00000000	      0.00000000	      0.00000000	      0.20242788	      0.00000000	      0.00000000	      0.00000000	      0.00000000	      0.00000000	     -0.31764928	      0.00000000	      0.13908000	      0.19562071
      2.65102106	      0.00000000	      0.00000000	      0.00000000	      0.00000000	      0.20221254	      0.00000000	      0.00000000	      0.00000000	      0.00000000	      0.00000000	     -0.31840774	      0.00000000	      0.13886383	      0.19584758
      2.65169817	      0.00000000	      0.00000000	      0.00000000	      0.00000000	      0.20199667	      0.00000000	      0.00000000	      0.00000000	      0.00000000	      0.00000000	     -0.31922321	      0.00000000	      0.13864766	      0.19604989
      2.65237528	      0.00000000	      0.00000000	      0.00000000	      0.00000000	      0.20178026	      0.00000000	      0.00000000	      0.00000000	      0.00000000	      0.00000000	     -0.31997363	      0.00000000	      0.13843151	      0.19628424
      2.65305239	      0.00000000	      0.00000000	      0.00000000	      0.00000000	      0.20156333	      0.00000000	      0.00000000	      0.00000000	      0.00000000	      0.00000000	     -0.32081183	      0.00000000	      0.13821536	      0.19648004
      2.65372950	      0.00000000	      0.00000000	      0.00000000	      0.00000000	      0.20134584	      0.00000000	      0.00000000	      0.00000000	      0.00000000	      0.00000000	     -0.32154804	      0.00000000	      0.13799922	      0.19672476
      2.65431050	      0.00000000	      0.00000000	      0.00000000	      0.00000000	      0.20115881	      0.00000000	      0.00000000	      0.00000000	      0.00000000	      0.00000000	     -0.32227888	      0.00000000	      0.13781376	      0.19689028
      2.65489150	      0.00000000	      0.00000000	      0.00000000	      0.00000000	      0.20097137	      0.00000000	      0.00000000	      0.00000000	      0.00000000	      0.00000000	     -0.32294423	      0.00000000	      0.13762831	      0.19708760
      2.65562971	      0.00000000	      0.00000000	      0.00000000	      0.00000000	      0.20073265	      0.00000000	      0.00000000	      0.00000000	      0.00000000	      0.00000000	     -0.32383907	      0.00000000	      0.13739268	      0.19731739
      2.65636793	      0.00000000	      0.00000000	      0.00000000	      0.00000000	      0.20049326	      0.00000000	      0.00000000	      0.00000000	      0.00000000	      0.00000000	     -0.32467370	      0.00000000	      0.13715707	      0.19757744
      2.65695081	      0.00000000	      0.00000000	      0.00000000	      0.00000000	      0.20030381	      0.00000000	      0.00000000	      0.00000000	      0.00000000	      0.00000000	     -0.32541280	      0.00000000	      0.13697103	      0.19774720
      2.65753369	      0.00000000	      0.00000000	      0.00000000	      0.00000000	      0.20011393	      0.00000000	      0.00000000	      0.00000000	      0.00000000	      0.00000000	     -0.32609172	      0.00000000	      0.13678501	      0.19794636
      2.65828541	      0.00000000	      0.00000000	      0.00000000	      0.00000000	      0.19986846	      0.00000000	      0.00000000	      0.00000000	      0.00000000	      0.00000000	     -0.32701596	      0.00000000	      0.13654511	      0.19818273
      2.65903713	      0.00000000	      0.00000000	      0.00000000	      0.00000000	      0.19962230	      0.00000000	      0.00000000	      0.00000000	      0.00000000	      0.00000000	     -0.32787387	      0.00000000	      0.13630521	      0.19845238
      2.65959603	      0.00000000	      0.00000000	      0.00000000	      0.00000000	      0.19943885	      0.00000000	      0.00000000	      0.00000000	      0.00000000	      0.00000000	     -0.32859745	      0.00000000	      0.13612686	      0.19861457
      2.66015492	      0.00000000	      0.00000000	      0.00000000	      0.00000000	      0.19925501	      0.00000000	      0.00000000	      0.00000000	      0.00000000	      0.00000000	     -0.32926174	      0.00000000	      0.13594851	      0.19880568
      2.66094705	      0.00000000	      0.00000000	      0.00000000	      0.00000000	      0.19899381	      0.00000000	      0.00000000	      0.00000000	      0.00000000	      0.00000000	     -0.33024404	      0.00000000	      0.13569575	      0.19905991
